<svg width="229" height="256" xmlns="http://www.w3.org/2000/svg" version="1.1" xml:space="preserve">
 <g>
  <title>Layer 1</title>
  <g id="svg_1">
   <path class="st0" d="m141.13408,129.00294l2.16605,5.36084c-1.14923,-1.48191 -1.95951,-3.24247 -2.16605,-5.36084zm34.51122,23.56488c-7.99163,-5.38617 -16.69026,-8.82179 -25.15058,-12.90337c-2.27462,-1.09877 -4.71607,-2.53634 -6.54318,-4.53439c-5.40719,-16.05718 -16.88092,-28.93205 -30.38036,-32.23468c-14.45801,-3.53378 -30.59484,4.91753 -37.86357,21.16786c-3.3603,7.50454 -4.91466,16.38332 -9.38182,22.89042c-5.95532,8.67613 -15.67608,11.21247 -23.12222,17.77657c-7.08866,6.25378 -11.98214,16.37382 -13.1605,27.22849c-1.17835,10.85466 1.37166,22.27929 6.86358,30.73377c6.64645,10.23087 16.81472,15.57271 26.77645,19.58146c20.66224,8.30882 42.33602,12.54556 64.01244,12.50756c12.2337,-0.02217 24.62363,-1.43758 36.14503,-6.65909c11.52404,-5.21834 22.19013,-14.53727 28.60356,-27.76045c6.41078,-13.22635 8.03664,-30.58495 2.60562,-44.49842c-4.017,-10.2942 -11.41018,-17.90956 -19.40445,-23.29573z" fill-rule="evenodd" clip-rule="evenodd" fill="#8291A5" id="svg_2"/>
   <path class="st1" d="m45.74828,133.08136c11.54258,-9.44242 12.79243,-33.05163 2.79627,-52.72808c-9.9988,-19.67645 -27.45698,-27.97261 -38.99956,-18.52702c-11.53993,9.44558 -12.79243,33.05163 -2.79363,52.72808c9.99615,19.67645 27.45698,27.97261 38.99691,18.52702l0.00001,0z" fill="#8291A5" id="svg_3"/>
   <path class="st1" d="m92.80831,86.12892c13.51268,-7.5932 17.83155,-32.76664 9.64662,-56.22386s-25.77286,-36.31626 -39.28554,-28.72306s-17.83155,32.76664 -9.64662,56.22386c8.18228,23.45722 25.77286,36.31626 39.28554,28.72306z" fill="#8291A5" id="svg_4"/>
   <path class="st1" d="m130.03901,94.87788c13.29025,8.20433 31.23036,-3.8441 40.07464,-26.91501c8.84163,-23.06774 5.23772,-48.41851 -8.05253,-56.62284c-13.2876,-8.20433 -31.23036,3.8441 -40.07199,26.91501c-8.84163,23.06774 -5.23772,48.41851 8.04988,56.62284z" fill="#8291A5" id="svg_5"/>
   <path class="st1" d="m225.38509,81.51854c-8.05253,-14.11613 -26.69436,-14.42961 -41.6396,-0.69979c-14.94259,13.72982 -20.5272,36.30359 -12.47467,50.41972c8.05253,14.11613 26.69436,14.42961 41.63695,0.69979c14.94259,-13.72982 20.52984,-36.30359 12.47732,-50.41972z" fill="#8291A5" id="svg_6"/>
  </g>
 </g>

</svg>