<svg width="50" height="50" xmlns="http://www.w3.org/2000/svg" version="1.1" xml:space="preserve">
 <g>
  <title>Layer 1</title>
  <g id="svg_1">
   <path class="st0" d="m45.96,40.48l-41.92,0c-2.23,0 -4.04,2.13 -4.04,4.76s1.81,4.76 4.04,4.76l41.92,0c2.23,0 4.04,-2.13 4.04,-4.76s-1.81,-4.76 -4.04,-4.76zm0,-20.24l-41.92,0c-2.23,0 -4.04,2.13 -4.04,4.76s1.81,4.76 4.04,4.76l41.92,0c2.23,0 4.04,-2.13 4.04,-4.76s-1.81,-4.76 -4.04,-4.76zm-45.96,-15.48c0,-2.63 1.81,-4.76 4.04,-4.76l41.92,0c2.23,0 4.04,2.13 4.04,4.76c0,2.63 -1.81,4.76 -4.04,4.76l-41.92,0c-2.23,0 -4.04,-2.13 -4.04,-4.76z" fill-rule="evenodd" clip-rule="evenodd" fill="#8291A5" id="svg_2"/>
  </g>
 </g>

</svg>